<svg width="40" height="40" viewBox="0 0 40 40" fill="none" xmlns="http://www.w3.org/2000/svg">
<g clip-path="url(#clip0_1_11302)">
<rect width="40" height="40" rx="20" fill="#BDBDBD"/>
<path d="M14.0679 25H10.4585V14.8182H14.0977C15.1219 14.8182 16.0035 15.022 16.7426 15.4297C17.4817 15.834 18.0501 16.4157 18.4478 17.1747C18.8489 17.9337 19.0494 18.8419 19.0494 19.8991C19.0494 20.9598 18.8489 21.8712 18.4478 22.6335C18.0501 23.3958 17.4784 23.9808 16.7326 24.3885C15.9902 24.7962 15.102 25 14.0679 25ZM12.6112 23.1555H13.9784C14.6147 23.1555 15.15 23.0429 15.5842 22.8175C16.0217 22.5888 16.3498 22.2358 16.5686 21.7585C16.7906 21.2779 16.9017 20.6581 16.9017 19.8991C16.9017 19.1468 16.7906 18.532 16.5686 18.0547C16.3498 17.5774 16.0234 17.2261 15.5892 17.0007C15.155 16.7753 14.6197 16.6626 13.9834 16.6626H12.6112V23.1555ZM29.7677 18.3828H27.5902C27.5504 18.1011 27.4692 17.8509 27.3465 17.6321C27.2239 17.41 27.0665 17.2211 26.8742 17.0653C26.682 16.9096 26.4599 16.7902 26.2081 16.7074C25.9595 16.6245 25.6893 16.5831 25.3977 16.5831C24.8707 16.5831 24.4116 16.714 24.0206 16.9759C23.6295 17.2344 23.3262 17.6122 23.1107 18.1094C22.8953 18.6032 22.7876 19.2031 22.7876 19.9091C22.7876 20.6349 22.8953 21.2448 23.1107 21.7386C23.3295 22.2325 23.6344 22.6054 24.0255 22.8572C24.4166 23.1091 24.869 23.2351 25.3828 23.2351C25.6711 23.2351 25.9379 23.197 26.1832 23.1207C26.4318 23.0445 26.6522 22.9335 26.8444 22.7876C27.0366 22.6385 27.1957 22.4579 27.3217 22.2457C27.4509 22.0336 27.5404 21.7917 27.5902 21.5199L29.7677 21.5298C29.7114 21.9972 29.5705 22.4479 29.3451 22.8821C29.1231 23.313 28.8231 23.6991 28.4453 24.0405C28.0707 24.3786 27.6233 24.647 27.1029 24.8459C26.5859 25.0414 26.0009 25.1392 25.348 25.1392C24.4398 25.1392 23.6278 24.9337 22.9119 24.5227C22.1993 24.1117 21.6358 23.5168 21.2215 22.7379C20.8106 21.959 20.6051 21.0161 20.6051 19.9091C20.6051 18.7988 20.8139 17.8542 21.2315 17.0753C21.6491 16.2964 22.2159 15.7031 22.9318 15.2955C23.6477 14.8845 24.4531 14.679 25.348 14.679C25.9379 14.679 26.4848 14.7618 26.9886 14.9276C27.4957 15.0933 27.9448 15.3352 28.3359 15.6534C28.727 15.9683 29.0452 16.3544 29.2904 16.8118C29.539 17.2692 29.6981 17.7929 29.7677 18.3828Z" fill="white"/>
</g>
<defs>
<clipPath id="clip0_1_11302">
<rect width="40" height="40" rx="20" fill="white"/>
</clipPath>
</defs>
</svg>
