<svg width="174" height="32" viewBox="0 0 174 32" fill="none" xmlns="http://www.w3.org/2000/svg">
<path d="M11.3334 11.52L18.36 16L11.3334 20.48V11.52ZM8.66669 6.66666V25.3333L23.3334 16L8.66669 6.66666Z" fill="url(#paint0_linear_1_19940)"/>
<path d="M40.3 22.86C39.54 22.86 38.84 22.72 38.2 22.44C37.56 22.16 37 21.7667 36.52 21.26C36.0533 20.7533 35.6867 20.1667 35.42 19.5C35.1667 18.8333 35.04 18.1133 35.04 17.34V16.98C35.04 16.22 35.1667 15.5067 35.42 14.84C35.6733 14.1733 36.0267 13.5867 36.48 13.08C36.9467 12.5733 37.4933 12.18 38.12 11.9C38.76 11.6067 39.4667 11.46 40.24 11.46C41.0533 11.46 41.7933 11.6333 42.46 11.98C43.1267 12.3133 43.6733 12.84 44.1 13.56C44.5267 14.28 44.7667 15.2133 44.82 16.36L44.02 15.08V7.9H45.94V22.5H44.42V17.76H44.98C44.9267 18.9733 44.6733 19.96 44.22 20.72C43.7667 21.4667 43.1933 22.0133 42.5 22.36C41.82 22.6933 41.0867 22.86 40.3 22.86ZM40.56 21.18C41.2133 21.18 41.8067 21.0333 42.34 20.74C42.8733 20.4467 43.3 20.0267 43.62 19.48C43.94 18.92 44.1 18.2667 44.1 17.52V16.6C44.1 15.8667 43.9333 15.2467 43.6 14.74C43.28 14.22 42.8467 13.8267 42.3 13.56C41.7667 13.28 41.18 13.14 40.54 13.14C39.8333 13.14 39.2067 13.3067 38.66 13.64C38.1267 13.9733 37.7067 14.44 37.4 15.04C37.1067 15.64 36.96 16.3467 36.96 17.16C36.96 17.9733 37.1133 18.6867 37.42 19.3C37.7267 19.9 38.1533 20.3667 38.7 20.7C39.2467 21.02 39.8667 21.18 40.56 21.18ZM54.1691 22.86C53.2357 22.86 52.4291 22.7 51.7491 22.38C51.0691 22.06 50.5157 21.64 50.0891 21.12C49.6624 20.5867 49.3424 19.9933 49.1291 19.34C48.9291 18.6867 48.8291 18.02 48.8291 17.34V16.98C48.8291 16.2867 48.9291 15.6133 49.1291 14.96C49.3424 14.3067 49.6624 13.72 50.0891 13.2C50.5157 12.6667 51.0557 12.2467 51.7091 11.94C52.3757 11.62 53.1557 11.46 54.0491 11.46C55.2091 11.46 56.1624 11.7133 56.9091 12.22C57.6691 12.7133 58.2291 13.3533 58.5891 14.14C58.9624 14.9267 59.1491 15.7667 59.1491 16.66V17.52H49.6691V16.08H57.7491L57.3091 16.86C57.3091 16.1 57.1891 15.4467 56.9491 14.9C56.7091 14.34 56.3491 13.9067 55.8691 13.6C55.3891 13.2933 54.7824 13.14 54.0491 13.14C53.2891 13.14 52.6557 13.3133 52.1491 13.66C51.6557 14.0067 51.2824 14.48 51.0291 15.08C50.7891 15.68 50.6691 16.3733 50.6691 17.16C50.6691 17.92 50.7891 18.6067 51.0291 19.22C51.2824 19.82 51.6691 20.3 52.1891 20.66C52.7091 21.0067 53.3691 21.18 54.1691 21.18C55.0091 21.18 55.6891 20.9933 56.2091 20.62C56.7424 20.2467 57.0624 19.8133 57.1691 19.32H58.9691C58.8224 20.0533 58.5291 20.6867 58.0891 21.22C57.6491 21.7533 57.0957 22.16 56.4291 22.44C55.7624 22.72 55.0091 22.86 54.1691 22.86ZM64.077 22.5L60.437 11.82H62.437L65.997 22.5H64.077ZM64.557 22.5V20.98H66.877V22.5H64.557ZM65.477 22.5L68.577 11.82H70.457L67.297 22.5H65.477Z" fill="white"/>
<path d="M78.38 22.88C77.4333 22.88 76.6067 22.7267 75.9 22.42C75.2067 22.1 74.6267 21.6733 74.16 21.14C73.6933 20.6067 73.3467 20.0067 73.12 19.34C72.8933 18.66 72.78 17.96 72.78 17.24V16.86C72.78 16.1133 72.9 15.4 73.14 14.72C73.38 14.0267 73.7333 13.4133 74.2 12.88C74.6667 12.3467 75.2467 11.9267 75.94 11.62C76.6467 11.3133 77.4533 11.16 78.36 11.16C79.3467 11.16 80.22 11.3533 80.98 11.74C81.74 12.1133 82.3467 12.64 82.8 13.32C83.2533 14 83.5067 14.78 83.56 15.66H80.42C80.3667 15.1667 80.1667 14.7533 79.82 14.42C79.4867 14.0733 79 13.9 78.36 13.9C77.8267 13.9 77.38 14.0333 77.02 14.3C76.6733 14.5667 76.4133 14.9333 76.24 15.4C76.0667 15.8667 75.98 16.42 75.98 17.06C75.98 17.6467 76.06 18.18 76.22 18.66C76.38 19.1267 76.6333 19.4933 76.98 19.76C77.34 20.0133 77.8067 20.14 78.38 20.14C78.8067 20.14 79.1667 20.0667 79.46 19.92C79.7667 19.76 80.0067 19.5467 80.18 19.28C80.3667 19 80.48 18.68 80.52 18.32H83.64C83.6 19.2267 83.3467 20.0267 82.88 20.72C82.4133 21.4 81.7933 21.9333 81.02 22.32C80.2467 22.6933 79.3667 22.88 78.38 22.88ZM85.6866 22.5V7.9H88.8866V16.32H88.4066C88.4066 15.2133 88.5466 14.28 88.8266 13.52C89.1066 12.76 89.5199 12.1867 90.0666 11.8C90.6132 11.4 91.2999 11.2 92.1266 11.2H92.2666C93.4799 11.2 94.4066 11.6333 95.0466 12.5C95.6866 13.3533 96.0066 14.6067 96.0066 16.26V22.5H92.8066V16.06C92.8066 15.46 92.6266 14.98 92.2666 14.62C91.9199 14.2467 91.4599 14.06 90.8866 14.06C90.2866 14.06 89.7999 14.2533 89.4266 14.64C89.0666 15.0267 88.8866 15.54 88.8866 16.18V22.5H85.6866ZM105.353 22.5V19.26H104.813V15.74C104.813 15.18 104.68 14.76 104.413 14.48C104.147 14.2 103.72 14.06 103.133 14.06C102.84 14.06 102.453 14.0667 101.973 14.08C101.493 14.0933 101 14.1133 100.493 14.14C99.9868 14.1667 99.5268 14.1933 99.1134 14.22V11.52C99.4201 11.4933 99.7801 11.4667 100.193 11.44C100.607 11.4133 101.033 11.3933 101.473 11.38C101.913 11.3667 102.327 11.36 102.713 11.36C103.833 11.36 104.773 11.52 105.533 11.84C106.307 12.16 106.893 12.6467 107.293 13.3C107.693 13.94 107.893 14.7667 107.893 15.78V22.5H105.353ZM101.853 22.78C101.067 22.78 100.373 22.64 99.7734 22.36C99.1868 22.08 98.7268 21.68 98.3934 21.16C98.0601 20.6267 97.8934 19.9933 97.8934 19.26C97.8934 18.46 98.1001 17.8067 98.5134 17.3C98.9268 16.78 99.5068 16.4 100.253 16.16C101 15.9067 101.86 15.78 102.833 15.78H105.173V17.56H102.813C102.253 17.56 101.82 17.7 101.513 17.98C101.22 18.2467 101.073 18.6133 101.073 19.08C101.073 19.52 101.22 19.88 101.513 20.16C101.82 20.4267 102.253 20.56 102.813 20.56C103.173 20.56 103.493 20.5 103.773 20.38C104.067 20.2467 104.307 20.0267 104.493 19.72C104.68 19.4133 104.787 18.9867 104.813 18.44L105.573 19.24C105.507 20 105.32 20.64 105.013 21.16C104.72 21.68 104.307 22.08 103.773 22.36C103.253 22.64 102.613 22.78 101.853 22.78ZM110.748 22.5V7.9H113.968V22.5H110.748ZM109.448 10.26V7.9H113.968V10.26H109.448ZM117.057 22.5V7.9H120.277V22.5H117.057ZM115.757 10.26V7.9H120.277V10.26H115.757ZM128.246 22.88C127.312 22.88 126.486 22.72 125.766 22.4C125.059 22.08 124.466 21.6533 123.986 21.12C123.519 20.5733 123.159 19.9667 122.906 19.3C122.666 18.62 122.546 17.9267 122.546 17.22V16.82C122.546 16.0867 122.666 15.3867 122.906 14.72C123.159 14.04 123.519 13.4333 123.986 12.9C124.452 12.3667 125.032 11.9467 125.726 11.64C126.432 11.32 127.232 11.16 128.126 11.16C129.299 11.16 130.286 11.4267 131.086 11.96C131.899 12.48 132.519 13.1667 132.946 14.02C133.372 14.86 133.586 15.78 133.586 16.78V17.86H123.886V16.04H131.646L130.606 16.88C130.606 16.2267 130.512 15.6667 130.326 15.2C130.139 14.7333 129.859 14.38 129.486 14.14C129.126 13.8867 128.672 13.76 128.126 13.76C127.566 13.76 127.092 13.8867 126.706 14.14C126.319 14.3933 126.026 14.7667 125.826 15.26C125.626 15.74 125.526 16.3333 125.526 17.04C125.526 17.6933 125.619 18.2667 125.806 18.76C125.992 19.24 126.286 19.6133 126.686 19.88C127.086 20.1467 127.606 20.28 128.246 20.28C128.832 20.28 129.312 20.1667 129.686 19.94C130.059 19.7133 130.312 19.4333 130.446 19.1H133.386C133.226 19.8333 132.912 20.4867 132.446 21.06C131.979 21.6333 131.392 22.08 130.686 22.4C129.979 22.72 129.166 22.88 128.246 22.88ZM135.706 22.5V11.54H138.246V16.24H138.066C138.066 15.12 138.206 14.1867 138.486 13.44C138.779 12.6933 139.219 12.1333 139.806 11.76C140.393 11.3867 141.106 11.2 141.946 11.2H142.086C143.366 11.2 144.339 11.62 145.006 12.46C145.686 13.2867 146.026 14.5467 146.026 16.24V22.5H142.826V16.06C142.826 15.4733 142.653 14.9933 142.306 14.62C141.959 14.2467 141.493 14.06 140.906 14.06C140.306 14.06 139.819 14.2533 139.446 14.64C139.086 15.0133 138.906 15.5067 138.906 16.12V22.5H135.706ZM153.073 26.86C152.54 26.86 151.993 26.84 151.433 26.8C150.873 26.76 150.36 26.7067 149.893 26.64V23.94C150.36 24.0067 150.873 24.06 151.433 24.1C152.006 24.1533 152.526 24.18 152.993 24.18C153.86 24.18 154.56 24.08 155.093 23.88C155.64 23.68 156.04 23.3733 156.293 22.96C156.546 22.56 156.673 22.04 156.673 21.4V19.22L157.253 17.94C157.226 18.9133 157.033 19.7467 156.673 20.44C156.326 21.1333 155.84 21.6667 155.213 22.04C154.586 22.4 153.84 22.58 152.973 22.58C152.226 22.58 151.546 22.4467 150.933 22.18C150.333 21.9 149.82 21.5133 149.393 21.02C148.966 20.5267 148.64 19.9533 148.413 19.3C148.186 18.6333 148.073 17.9133 148.073 17.14V16.68C148.073 15.9067 148.193 15.1867 148.433 14.52C148.673 13.8533 149.02 13.2733 149.473 12.78C149.926 12.2867 150.466 11.9067 151.093 11.64C151.72 11.36 152.413 11.22 153.173 11.22C154.053 11.22 154.813 11.4133 155.453 11.8C156.106 12.1867 156.62 12.7533 156.993 13.5C157.366 14.2467 157.566 15.1467 157.593 16.2L157.153 16.32V11.54H159.693V21.2C159.693 22.5467 159.453 23.6333 158.973 24.46C158.493 25.2867 157.76 25.8933 156.773 26.28C155.8 26.6667 154.566 26.86 153.073 26.86ZM153.973 19.88C154.466 19.88 154.913 19.7733 155.313 19.56C155.713 19.3333 156.026 19.0133 156.253 18.6C156.493 18.1867 156.613 17.6867 156.613 17.1V16.52C156.613 15.9467 156.486 15.4667 156.233 15.08C155.993 14.68 155.673 14.38 155.273 14.18C154.873 13.9667 154.446 13.86 153.993 13.86C153.46 13.86 152.986 13.9867 152.573 14.24C152.16 14.4933 151.84 14.8467 151.613 15.3C151.386 15.7533 151.273 16.2867 151.273 16.9C151.273 17.5267 151.386 18.0667 151.613 18.52C151.853 18.96 152.173 19.3 152.573 19.54C152.986 19.7667 153.453 19.88 153.973 19.88ZM167.484 22.88C166.551 22.88 165.724 22.72 165.004 22.4C164.297 22.08 163.704 21.6533 163.224 21.12C162.757 20.5733 162.397 19.9667 162.144 19.3C161.904 18.62 161.784 17.9267 161.784 17.22V16.82C161.784 16.0867 161.904 15.3867 162.144 14.72C162.397 14.04 162.757 13.4333 163.224 12.9C163.691 12.3667 164.271 11.9467 164.964 11.64C165.671 11.32 166.471 11.16 167.364 11.16C168.537 11.16 169.524 11.4267 170.324 11.96C171.137 12.48 171.757 13.1667 172.184 14.02C172.611 14.86 172.824 15.78 172.824 16.78V17.86H163.124V16.04H170.884L169.844 16.88C169.844 16.2267 169.751 15.6667 169.564 15.2C169.377 14.7333 169.097 14.38 168.724 14.14C168.364 13.8867 167.911 13.76 167.364 13.76C166.804 13.76 166.331 13.8867 165.944 14.14C165.557 14.3933 165.264 14.7667 165.064 15.26C164.864 15.74 164.764 16.3333 164.764 17.04C164.764 17.6933 164.857 18.2667 165.044 18.76C165.231 19.24 165.524 19.6133 165.924 19.88C166.324 20.1467 166.844 20.28 167.484 20.28C168.071 20.28 168.551 20.1667 168.924 19.94C169.297 19.7133 169.551 19.4333 169.684 19.1H172.624C172.464 19.8333 172.151 20.4867 171.684 21.06C171.217 21.6333 170.631 22.08 169.924 22.4C169.217 22.72 168.404 22.88 167.484 22.88Z" fill="url(#paint1_linear_1_19940)"/>
<defs>
<linearGradient id="paint0_linear_1_19940" x1="23" y1="7" x2="9" y2="25" gradientUnits="userSpaceOnUse">
<stop stop-color="#8000FF"/>
<stop offset="1" stop-color="#EB00FF"/>
</linearGradient>
<linearGradient id="paint1_linear_1_19940" x1="171.682" y1="3.94644" x2="166.014" y2="41.788" gradientUnits="userSpaceOnUse">
<stop stop-color="#8000FF"/>
<stop offset="1" stop-color="#EB00FF"/>
</linearGradient>
</defs>
</svg>
